<svg width="988" height="95" viewBox="0 0 988 95" fill="none" xmlns="http://www.w3.org/2000/svg">
<path d="M950.846 1.52344C961.942 1.52345 970.179 4.55712 975.643 9.88965C981.107 15.2232 983.729 22.7908 983.729 31.7197C983.729 44.0818 978.699 53.9027 967.961 58.6973L986.979 89.0508C987.466 89.8161 987.644 90.6141 987.259 91.2568C986.883 91.8832 986.11 92.123 985.277 92.123H965.821C965.247 92.123 964.713 92.0152 964.239 91.7588C963.767 91.5028 963.386 91.1153 963.091 90.6035L945.573 61.915H943.538V89.5752C943.538 91.0033 942.417 92.123 940.989 92.123H922.686C921.216 92.123 920.266 90.9595 920.266 89.5752V4.07129C920.266 2.68702 921.216 1.5235 922.686 1.52344H950.846ZM943.538 41.2031H950.334C953.255 41.2031 956.041 40.8184 958.09 39.4629C960.096 38.1354 961.481 35.8154 961.481 31.7197C961.481 27.624 960.096 25.3041 958.09 23.9766C956.041 22.621 953.255 22.2354 950.334 22.2354H943.538V41.2031Z" fill="white" stroke="white"/>
<path d="M904.283 1.52344C905.753 1.52344 906.704 2.68698 906.704 4.07129V19.6875C906.704 21.0718 905.753 22.2354 904.283 22.2354H878.288V36.2119H902.62C904.048 36.2122 905.168 37.3318 905.168 38.7598V54.5039C905.168 55.9735 904.004 56.9236 902.62 56.9238H878.288V71.4111H904.155C905.583 71.4111 906.704 72.5311 906.704 73.959V89.5752C906.704 91.0033 905.583 92.123 904.155 92.123H857.436C855.966 92.123 855.016 90.9595 855.016 89.5752V4.07129C855.016 2.68702 855.966 1.5235 857.436 1.52344H904.283Z" fill="white" stroke="white"/>
<path d="M734.647 1.52344C735.212 1.52344 735.824 1.62766 736.329 1.93066C736.846 2.24069 737.222 2.74537 737.314 3.46094L752.076 59.4082L768.215 3.4209L768.221 3.40137C768.433 2.76372 768.742 2.264 769.238 1.94043C769.725 1.62328 770.319 1.52348 770.999 1.52344H788.279C788.959 1.52344 789.555 1.62318 790.041 1.94043C790.475 2.22359 790.765 2.64172 790.974 3.16895L791.058 3.40137L791.062 3.41113L791.063 3.4209L807.202 59.4082L821.972 3.43164H821.973C822.13 2.74479 822.489 2.24874 822.99 1.93555C823.481 1.62893 824.064 1.52344 824.632 1.52344H843.703C844.507 1.52344 845.179 1.78355 845.56 2.35449C845.93 2.91008 845.932 3.62524 845.719 4.33887L820.637 90.207C820.529 90.8319 820.087 91.312 819.557 91.623C819.007 91.9451 818.31 92.123 817.592 92.123H798.647C797.987 92.123 797.294 91.9415 796.737 91.626C796.204 91.3235 795.708 90.8438 795.6 90.1963L779.701 31.9482L763.678 90.2031C763.567 90.847 763.074 91.3246 762.542 91.626C761.985 91.9415 761.292 92.123 760.632 92.123H741.688C740.97 92.123 740.272 91.9451 739.723 91.623C739.192 91.312 738.75 90.832 738.642 90.207L713.56 4.33984L713.561 4.33887C713.347 3.62512 713.349 2.91013 713.72 2.35449C714.1 1.78361 714.771 1.52349 715.575 1.52344H734.647Z" fill="white" stroke="white"/>
<path d="M665.288 0.5C690.904 0.5 711.996 20.9434 711.996 47.208C711.996 73.3456 690.903 93.7881 665.288 93.7881C639.673 93.7881 618.58 73.3456 618.58 47.208C618.58 20.9434 639.672 0.5 665.288 0.5ZM665.288 23.3877C652.135 23.3877 642.108 33.5215 642.108 47.208C642.108 60.7647 652.133 70.9004 665.288 70.9004C678.44 70.9004 688.34 60.7683 688.34 47.208C688.34 33.5179 678.438 23.3877 665.288 23.3877Z" fill="white" stroke="white"/>
<path d="M587.239 1.52344C588.667 1.52344 589.788 2.64321 589.788 4.07129V71.4111H614.248C614.938 71.4112 615.551 71.6436 615.993 72.0859C616.435 72.5282 616.668 73.1416 616.668 73.8311V89.7031C616.668 90.3927 616.436 91.0068 615.993 91.4492C615.551 91.8914 614.937 92.123 614.248 92.123H568.936C567.466 92.123 566.516 90.9595 566.516 89.5752V4.07129C566.516 2.68702 567.466 1.5235 568.936 1.52344H587.239Z" fill="white" stroke="white"/>
<path d="M551.149 1.52344C552.578 1.52344 553.697 2.64323 553.697 4.07129V19.6875C553.697 21.1156 552.578 22.2354 551.149 22.2354H525.538V35.6992H549.485C550.913 35.6992 552.033 36.8191 552.033 38.2471V53.8633C552.033 55.2914 550.914 56.4111 549.485 56.4111H525.538V89.5752C525.538 91.0033 524.417 92.123 522.989 92.123H504.686C503.216 92.123 502.266 90.9595 502.266 89.5752V4.07129C502.266 2.68702 503.216 1.52347 504.686 1.52344H551.149Z" fill="white" stroke="white"/>
<path d="M461.658 1.52344L461.928 1.53711C463.243 1.66988 464.079 2.77343 464.079 4.07129V19.6875C464.079 21.0718 463.128 22.2354 461.658 22.2354H435.663V36.2119H459.995C461.423 36.2122 462.543 37.3318 462.543 38.7598V54.5039C462.543 55.9734 461.379 56.9236 459.995 56.9238H435.663V71.4111H461.53C462.958 71.4111 464.079 72.5311 464.079 73.959V89.5752C464.079 91.0033 462.958 92.123 461.53 92.123H414.811C413.341 92.123 412.391 90.9595 412.391 89.5752V4.07129C412.391 2.68702 413.341 1.52347 414.811 1.52344H461.658Z" fill="white" stroke="white"/>
<path d="M359.29 0.5C372.607 0.5 383.492 5.5456 391.141 13.7119C391.777 14.2897 392.146 14.9872 392.126 15.7812C392.106 16.57 391.704 17.3521 391.02 18.1045L391.014 18.1113L380.39 29.375C379.82 30.0112 379.166 30.3846 378.473 30.4268C377.785 30.4685 377.153 30.177 376.634 29.6719C372.104 25.8967 366.582 23.3877 359.418 23.3877C346.133 23.3877 336.11 33.3971 336.11 47.208C336.11 54.1227 338.622 60.0382 342.919 64.2256C347.216 68.4136 353.327 70.9004 360.57 70.9004C371.962 70.9003 377.936 65.0966 378.823 58.8438H360.058C359.368 58.8437 358.755 58.6121 358.312 58.1699C357.87 57.7275 357.638 57.1134 357.638 56.4238V40.6797C357.638 39.9902 357.87 39.3769 358.312 38.9346C358.755 38.4923 359.368 38.2599 360.058 38.2598H398.97C399.659 38.2598 400.273 38.4922 400.716 38.9346C401.158 39.3769 401.39 39.9903 401.39 40.6797V50.792C401.39 62.5483 397.514 73.2977 390.363 81.1133C383.207 88.9344 372.798 93.7881 359.802 93.7881C333.941 93.7879 312.582 73.9953 312.582 47.208C312.582 20.426 333.936 0.5 359.29 0.5Z" fill="white" stroke="white"/>
<path d="M269.971 1.52344L271.003 1.53223C281.58 1.71527 289.475 4.7238 294.768 9.88965C300.232 15.2232 302.854 22.7908 302.854 31.7197C302.854 44.0818 297.824 53.9027 287.086 58.6973L306.104 89.0508L306.272 89.3389C306.627 90.013 306.721 90.6944 306.384 91.2568C306.008 91.8832 305.235 92.123 304.402 92.123H284.946C284.372 92.123 283.838 92.0152 283.364 91.7588C282.888 91.5008 282.504 91.1097 282.208 90.5918V90.5908L264.698 61.915H262.663V89.5752C262.663 91.0033 261.542 92.123 260.114 92.123H241.811C240.341 92.123 239.391 90.9595 239.391 89.5752V4.07129C239.391 2.68702 240.341 1.52348 241.811 1.52344H269.971ZM262.663 41.2031H269.459C272.38 41.2031 275.166 40.8184 277.215 39.4629C279.221 38.1354 280.606 35.8154 280.606 31.7197C280.606 27.624 279.221 25.3041 277.215 23.9766C275.166 22.621 272.38 22.2354 269.459 22.2354H262.663V41.2031Z" fill="white" stroke="white"/>
<path d="M196.486 1.52344C197.559 1.5235 198.856 2.02431 199.413 3.15039L199.515 3.38379L199.517 3.39062L199.52 3.39746L228.959 89.2852C229.253 90.0372 229.205 90.7723 228.767 91.3262C228.337 91.8689 227.621 92.123 226.822 92.123H207.75C207.18 92.123 206.602 92.0167 206.101 91.7158C205.589 91.409 205.198 90.9239 204.972 90.2451L204.969 90.2354L201.75 79.8359H171.895L168.676 90.2354L168.673 90.2451C168.453 90.9035 168.105 91.3915 167.623 91.7061C167.147 92.0165 166.593 92.123 166.022 92.123H146.95C146.151 92.123 145.436 91.8689 145.006 91.3262C144.567 90.7718 144.52 90.036 144.814 89.2832L174.253 3.39746L174.256 3.39062L174.258 3.38379C174.734 2.11351 175.986 1.52344 177.158 1.52344H196.486ZM178.352 59.123H195.295L186.882 31.9893L178.352 59.123Z" fill="white" stroke="white"/>
<path d="M108.989 1.52344C110.417 1.52344 111.538 2.64322 111.538 4.07129V71.4111H135.998C136.688 71.4112 137.301 71.6436 137.743 72.0859C138.185 72.5282 138.418 73.1416 138.418 73.8311V89.7031C138.418 90.3927 138.186 91.0068 137.743 91.4492C137.301 91.8914 136.687 92.123 135.998 92.123H90.6855C89.2156 92.123 88.2656 90.9595 88.2656 89.5752V4.07129C88.2657 2.68702 89.2157 1.52348 90.6855 1.52344H108.989Z" fill="white" stroke="white"/>
<path d="M23.4697 1.52344C24.5883 1.52353 25.582 2.04855 26.1992 2.86035L26.3174 3.02637L26.335 3.05371L38.5732 24.3164L50.8125 3.05371C51.3023 2.10293 52.3822 1.52344 53.5498 1.52344H73.0059C73.8191 1.52351 74.5889 1.72178 74.9893 2.32227C75.3989 2.93675 75.2684 3.7347 74.8604 4.55078L74.8545 4.56348L74.8477 4.57617L51.1816 45.9258L76.126 89.0693L76.1338 89.082L76.1406 89.0957C76.5487 89.9118 76.6792 90.7107 76.2695 91.3252C75.8691 91.9256 75.0984 92.123 74.2852 92.123H54.5732C53.3803 92.123 52.3293 91.5264 51.7256 90.6211L51.7148 90.6055L51.7061 90.5889L38.5703 67.293L25.3115 90.5908L25.3037 90.6064L25.293 90.6211C24.6893 91.5263 23.6382 92.123 22.4453 92.123H2.7334C1.9201 92.123 1.14943 91.9257 0.749023 91.3252C0.339348 90.7107 0.469867 89.9118 0.87793 89.0957L0.884766 89.082L0.892578 89.0693L25.8359 45.9258L2.17188 4.57617L2.16406 4.56348L2.1582 4.55078C1.75026 3.7348 1.61979 2.93671 2.0293 2.32227C2.42969 1.72167 3.20032 1.52344 4.01367 1.52344H23.4697Z" fill="white" stroke="white"/>
</svg>
